<?xml version="1.0" encoding="iso-8859-1"?>
<!-- Uploaded to: SVG Repo, www.svgrepo.com, Generator: SVG Repo Mixer Tools -->
<svg fill="#FFFFFF" height="800px" width="800px" version="1.1" id="Layer_1" xmlns="http://www.w3.org/2000/svg" xmlns:xlink="http://www.w3.org/1999/xlink" 
	 viewBox="0 0 512 512" xml:space="preserve">
<g>
	<g>
		<g>
			<path d="M133.116,96.491L99.29,37.899c-9.249-16.02-32.372-16.02-41.621,0l-36.867,63.857h0.141
				c-5.908,10.451-9.074,22.654-8.483,35.643c1.559,34.21,29.555,61.933,63.779,63.164c37.728,1.356,68.736-28.824,68.736-66.251
				C144.976,120.248,140.584,107.22,133.116,96.491z"/>
			<path d="M484.766,94.416l-47.571-82.401c-9.249-16.02-32.372-16.02-41.621,0l-51.377,88.99h0.177
				c-7.442,13.165-11.412,28.554-10.601,44.936c2.098,42.452,36.637,76.818,79.1,78.696c47.537,2.104,86.737-35.812,86.737-82.887
				C499.609,124.151,494.114,107.842,484.766,94.416z"/>
			<path d="M268.317,196.952c-9.249-16.02-32.372-16.02-41.621,0l-81.076,140.43h0.252c-10.19,18.023-15.762,38.999-15.048,61.335
				c1.937,60.503,50.445,110.039,110.902,113.126c67.468,3.446,123.245-50.235,123.245-116.953c0-24.838-7.754-47.858-20.949-66.809
				L268.317,196.952z"/>
		</g>
	</g>
</g>
</svg>