<svg version="1.1" id="Layer_1" xmlns="http://www.w3.org/2000/svg" xmlns:xlink="http://www.w3.org/1999/xlink" x="0px" y="0px" viewBox="0 0 26 22" enable-background="new 0 0 26 22" xml:space="preserve">
    <path clip-rule="evenodd" d="M23.7,3.9C23.7,3.9,23.7,3.9,23.7,3.9C27,8,26.8,14.4,22.9,18.4
        c-0.1,0.1-0.1,0.1-0.1,0c-0.8,0.8-2.1,0.8-2.9,0l-5.2-5.3l-7.5,7.6c-1.7,1.7-4.3,1.7-6,0c-1.7-1.7-1.7-4.4,0-6.1L2,13.8
        c0.4-0.4,1.1-0.4,1.5,0c0.4,0.4,0.4,1.1,0,1.5l-0.7,0.8c-0.8,0.8-0.8,2.2,0,3.1s2.2,0.8,3,0l2.6-2.6l1.2-1.2l3.7-3.8L8,6.2
        c-0.8-0.8-0.8-2.2,0-3c0,0,0,0,0-0.1c3.9-4,10.2-4.1,14.2-0.7c0,0,0-0.1,0-0.1l0,0c0,0,2.2-2.3,3-1.5C25.8,1.5,23.7,3.9,23.7,3.9
        L23.7,3.9z"></path>
</svg>